Coordinates
version=1
nRows=17
nColumns=27
inDegrees=yes

Units are S.I. units (second, meters, Newtons, ...)
If the header above contains a line with 'inDegrees', this indicates whether rotational values are in degrees (yes) or radians (no).

endheader
time	pelvis_rotation	pelvis_tilt	pelvis_list	pelvis_tx	pelvis_ty	pelvis_tz	hip_flexion_r	hip_adduction_r	hip_rotation_r	knee_angle_r	knee_rotation_r	knee_adduction_r	knee_angle_r_beta	ankle_angle_r	subtalar_angle_r	mtp_angle_r	hip_flexion_l	hip_adduction_l	hip_rotation_l	knee_angle_l	knee_rotation_l	knee_adduction_l	knee_angle_l_beta	ankle_angle_l	subtalar_angle_l	mtp_angle_l
      4.64000000	     11.87935890	    -41.99165394	      8.33564691	      0.01492984	      0.44018532	     -1.16305293	    147.72719376	    -49.14993925	     33.01215470	    108.56271595	      0.00000000	      9.85843189	      1.89477684	     17.48071107	      0.00000000	      0.00000000	    135.39773016	    -27.67440524	     17.29427106	    105.91596306	      0.00000000	     -9.95278857	      1.84858229	     10.31076966	      0.00000000	      0.00000000
      4.64500000	     11.93261801	    -41.99020902	      8.34812301	      0.01458944	      0.44059588	     -1.16313225	    147.66997710	    -49.16290151	     32.97739116	    108.50640012	      0.00000000	      9.85766323	      1.89379394	     17.50383547	      0.00000000	      0.00000000	    135.35522513	    -27.63369473	     17.20566251	    105.84943424	      0.00000000	     -9.95268679	      1.84742114	     10.28844174	      0.00000000	      0.00000000
      4.65000000	     12.11916722	    -42.00756599	      8.55698330	      0.01416022	      0.44106376	     -1.16330040	    147.81396082	    -49.11892601	     33.16959047	    108.41524233	      0.00000000	      9.85717933	      1.89220294	     17.42036673	      0.00000000	      0.00000000	    135.23913857	    -27.57984350	     16.94533544	    105.75400128	      0.00000000	     -9.95251685	      1.84575552	     10.22912898	      0.00000000	      0.00000000
      4.65500000	     11.99789319	    -42.06722209	      8.24897629	      0.01372639	      0.44159419	     -1.16301323	    147.45781881	    -49.19386584	     32.73086351	    108.38482263	      0.00000000	      9.85586330	      1.89167201	     17.36162329	      0.00000000	      0.00000000	    135.40555868	    -27.50141657	     17.17182867	    105.65890438	      0.00000000	     -9.95246866	      1.84409577	     10.11033360	      0.00000000	      0.00000000
      4.66000000	     12.15600968	    -42.11773212	      8.44057029	      0.01325194	      0.44217684	     -1.16320340	    147.59280775	    -49.14351343	     32.86939366	    108.28757536	      0.00000000	      9.85518698	      1.88997473	     17.30538193	      0.00000000	      0.00000000	    135.32700144	    -27.47850360	     16.90973146	    105.56167991	      0.00000000	     -9.95230723	      1.84239888	     10.04307137	      0.00000000	      0.00000000
      4.66500000	     12.24314140	    -42.15285217	      8.48706519	      0.01277611	      0.44285533	     -1.16325502	    147.55573556	    -49.14433484	     32.83436613	    108.19947768	      0.00000000	      9.85427298	      1.88843713	     17.25048048	      0.00000000	      0.00000000	    135.28144106	    -27.42743288	     16.77425766	    105.44525680	      0.00000000	     -9.95219679	      1.84036691	      9.96236844	      0.00000000	      0.00000000
      4.67000000	     12.31036160	    -42.19115250	      8.50918963	      0.01227772	      0.44358499	     -1.16329230	    147.48060645	    -49.14509270	     32.75067897	    108.09860605	      0.00000000	      9.85324968	      1.88667659	     17.20059452	      0.00000000	      0.00000000	    135.24389633	    -27.39202575	     16.64922749	    105.32193772	      0.00000000	     -9.95203665	      1.83821459	      9.89163999	      0.00000000	      0.00000000
      4.67500000	     12.39457981	    -42.25707971	      8.54188311	      0.01171289	      0.44441079	     -1.16332863	    147.41557537	    -49.14348775	     32.66047994	    107.98539145	      0.00000000	      9.85220169	      1.88470062	     17.14531372	      0.00000000	      0.00000000	    135.21791871	    -27.33109131	     16.51728624	    105.18067081	      0.00000000	     -9.95187589	      1.83574902	      9.80470612	      0.00000000	      0.00000000
      4.68000000	     12.47812280	    -42.30548617	      8.59602674	      0.01115084	      0.44528807	     -1.16338959	    147.36390342	    -49.12635759	     32.60017004	    107.86959714	      0.00000000	      9.85118867	      1.88267963	     17.01867954	      0.00000000	      0.00000000	    135.15348745	    -27.29027511	     16.35508925	    105.03449332	      0.00000000	     -9.95166869	      1.83319774	      9.73002616	      0.00000000	      0.00000000
      4.68500000	     12.51938623	    -42.39211089	      8.54728184	      0.01053008	      0.44625162	     -1.16337156	    147.20187792	    -49.15107681	     32.38028033	    107.73346676	      0.00000000	      9.84973664	      1.88030371	     16.98042824	      0.00000000	      0.00000000	    135.16818753	    -27.21817214	     16.28675804	    104.87506067	      0.00000000	     -9.95148347	      1.83041511	      9.62894420	      0.00000000	      0.00000000
      4.69000000	     12.62520892	    -42.43015012	      8.64625941	      0.00992020	      0.44726026	     -1.16349730	    147.14882124	    -49.12615689	     32.33965355	    107.59243453	      0.00000000	      9.84873322	      1.87784223	     16.94157952	      0.00000000	      0.00000000	    135.05685997	    -27.19060793	     16.06144752	    104.71022861	      0.00000000	     -9.95125765	      1.82753825	      9.54650551	      0.00000000	      0.00000000
      4.69500000	     12.70013556	    -42.49367401	      8.68124747	      0.00928575	      0.44836532	     -1.16356404	    147.03770054	    -49.12245006	     32.20408749	    107.43970472	      0.00000000	      9.84747142	      1.87517659	     16.86312968	      0.00000000	      0.00000000	    134.97872871	    -27.14192242	     15.89439829	    104.52849016	      0.00000000	     -9.95102956	      1.82436632	      9.47317118	      0.00000000	      0.00000000
      4.70000000	     12.77656723	    -42.54501002	      8.70953915	      0.00859705	      0.44952250	     -1.16363239	    146.88783320	    -49.11636401	     32.06260086	    107.27425571	      0.00000000	      9.84610280	      1.87228896	     16.75377667	      0.00000000	      0.00000000	    134.89987360	    -27.08318045	     15.72804342	    104.33982076	      0.00000000	     -9.95077961	      1.82107341	      9.34216286	      0.00000000	      0.00000000
      4.70500000	     12.87471424	    -42.61235247	      8.76656292	      0.00791754	      0.45073329	     -1.16375196	    146.79341741	    -49.12352886	     31.93772960	    107.10333931	      0.00000000	      9.84452032	      1.86930591	     16.67214086	      0.00000000	      0.00000000	    134.80673011	    -27.02375207	     15.52986111	    104.14746631	      0.00000000	     -9.95051476	      1.81771619	      9.27245064	      0.00000000	      0.00000000
      4.71000000	     12.98871459	    -42.65832275	      8.88142590	      0.00720895	      0.45202054	     -1.16390978	    146.70972481	    -49.09187356	     31.86926128	    106.92052283	      0.00000000	      9.84298903	      1.86611516	     16.60045480	      0.00000000	      0.00000000	    134.65835736	    -26.98945486	     15.26538087	    103.94210147	      0.00000000	     -9.95021408	      1.81413190	      9.17564087	      0.00000000	      0.00000000
      4.71500000	     12.99331015	    -42.75042369	      8.75439677	      0.00647844	      0.45340384	     -1.16387544	    146.38028513	    -49.14974324	     31.48414611	    106.73683013	      0.00000000	      9.84099247	      1.86290912	     16.67124996	      0.00000000	      0.00000000	    134.64428817	    -26.88769197	     15.23281775	    103.72550530	      0.00000000	     -9.94995760	      1.81035159	      9.07095295	      0.00000000	      0.00000000
      4.72000000	     13.09993077	    -42.79539853	      8.86516149	      0.00570659	      0.45481146	     -1.16402417	    146.29307322	    -49.11443455	     31.40332507	    106.53478227	      0.00000000	      9.83936694	      1.85938272	     16.42400001	      0.00000000	      0.00000000	    134.47808430	    -26.85129913	     14.96499225	    103.49440241	      0.00000000	     -9.94957603	      1.80631808	      8.97225521	      0.00000000	      0.00000000
